<?xml version="1.0" standalone="no"?><!-- Created with ZXing.Net (http://zxingnet.codeplex.com/) --><!DOCTYPE svg PUBLIC "-//W3C//DTD SVG 1.1//EN" "http://www.w3.org/Graphics/SVG/1.1/DTD/svg11.dtd"><svg xmlns="http://www.w3.org/2000/svg" version="1.2" baseProfile="tiny" shape-rendering="crispEdges" viewBox="0 0 460 404" viewport-fill="rgb(255,255,255)" viewport-fill-opacity="1" fill="currentColor" fill-opacity="1" style="background-color:;background-color:rgba(1);"><rect x="85" y="57" width="10" height="70"/><rect x="85" y="137" width="20" height="10"/><rect x="85" y="167" width="50" height="10"/><rect x="85" y="187" width="10" height="10"/><rect x="85" y="207" width="10" height="10"/><rect x="85" y="227" width="10" height="40"/><rect x="85" y="277" width="10" height="70"/><rect x="95" y="57" width="60" height="10"/><rect x="95" y="117" width="60" height="10"/><rect x="95" y="157" width="30" height="30"/><rect x="95" y="197" width="10" height="10"/><rect x="95" y="217" width="30" height="10"/><rect x="95" y="237" width="10" height="10"/><rect x="95" y="277" width="60" height="10"/><rect x="95" y="337" width="60" height="10"/><rect x="105" y="77" width="30" height="30"/><rect x="105" y="147" width="20" height="50"/><rect x="105" y="207" width="10" height="30"/><rect x="105" y="247" width="10" height="20"/><rect x="105" y="297" width="30" height="30"/><rect x="115" y="197" width="10" height="10"/><rect x="115" y="227" width="10" height="10"/><rect x="125" y="147" width="20" height="10"/><rect x="125" y="237" width="10" height="10"/><rect x="135" y="137" width="10" height="20"/><rect x="135" y="177" width="10" height="30"/><rect x="135" y="227" width="10" height="10"/><rect x="135" y="247" width="10" height="20"/><rect x="145" y="67" width="10" height="60"/><rect x="145" y="137" width="20" height="10"/><rect x="145" y="157" width="40" height="10"/><rect x="145" y="177" width="50" height="10"/><rect x="145" y="197" width="20" height="10"/><rect x="145" y="217" width="30" height="10"/><rect x="145" y="237" width="10" height="10"/><rect x="145" y="257" width="10" height="10"/><rect x="145" y="287" width="10" height="60"/><rect x="155" y="147" width="10" height="20"/><rect x="155" y="227" width="10" height="10"/><rect x="155" y="247" width="10" height="10"/><rect x="165" y="87" width="10" height="20"/><rect x="165" y="117" width="10" height="10"/><rect x="165" y="187" width="10" height="10"/><rect x="165" y="207" width="10" height="20"/><rect x="165" y="257" width="10" height="40"/><rect x="165" y="327" width="10" height="20"/><rect x="175" y="57" width="30" height="10"/><rect x="175" y="77" width="30" height="10"/><rect x="175" y="107" width="20" height="10"/><rect x="175" y="127" width="10" height="20"/><rect x="175" y="207" width="30" height="10"/><rect x="175" y="227" width="10" height="20"/><rect x="175" y="277" width="20" height="20"/><rect x="175" y="307" width="20" height="20"/><rect x="175" y="337" width="20" height="10"/><rect x="185" y="87" width="10" height="40"/><rect x="185" y="137" width="10" height="20"/><rect x="185" y="167" width="10" height="60"/><rect x="185" y="247" width="10" height="20"/><rect x="185" y="327" width="10" height="20"/><rect x="195" y="67" width="10" height="30"/><rect x="195" y="157" width="10" height="20"/><rect x="195" y="217" width="10" height="40"/><rect x="195" y="267" width="10" height="10"/><rect x="195" y="297" width="10" height="20"/><rect x="205" y="67" width="10" height="10"/><rect x="205" y="97" width="20" height="10"/><rect x="205" y="117" width="10" height="30"/><rect x="205" y="157" width="10" height="10"/><rect x="205" y="177" width="10" height="20"/><rect x="205" y="217" width="20" height="20"/><rect x="205" y="247" width="10" height="10"/><rect x="205" y="297" width="10" height="10"/><rect x="215" y="87" width="10" height="30"/><rect x="215" y="137" width="20" height="10"/><rect x="215" y="187" width="10" height="20"/><rect x="215" y="237" width="30" height="10"/><rect x="215" y="257" width="20" height="10"/><rect x="215" y="277" width="10" height="10"/><rect x="215" y="317" width="10" height="10"/><rect x="215" y="337" width="20" height="10"/><rect x="225" y="57" width="10" height="10"/><rect x="225" y="77" width="10" height="10"/><rect x="225" y="107" width="10" height="20"/><rect x="225" y="147" width="10" height="40"/><rect x="225" y="197" width="40" height="10"/><rect x="225" y="217" width="10" height="10"/><rect x="225" y="247" width="10" height="20"/><rect x="225" y="287" width="20" height="10"/><rect x="225" y="307" width="30" height="10"/><rect x="235" y="127" width="20" height="10"/><rect x="235" y="147" width="10" height="20"/><rect x="235" y="177" width="20" height="30"/><rect x="235" y="227" width="10" height="20"/><rect x="235" y="267" width="10" height="30"/><rect x="235" y="317" width="10" height="20"/><rect x="245" y="67" width="10" height="40"/><rect x="245" y="117" width="10" height="20"/><rect x="245" y="157" width="10" height="50"/><rect x="245" y="257" width="20" height="10"/><rect x="245" y="327" width="10" height="20"/><rect x="255" y="67" width="10" height="10"/><rect x="255" y="87" width="10" height="10"/><rect x="255" y="137" width="10" height="10"/><rect x="255" y="217" width="30" height="20"/><rect x="255" y="277" width="10" height="10"/><rect x="255" y="337" width="10" height="10"/><rect x="265" y="57" width="10" height="10"/><rect x="265" y="77" width="30" height="10"/><rect x="265" y="97" width="30" height="10"/><rect x="265" y="117" width="10" height="20"/><rect x="265" y="147" width="20" height="10"/><rect x="265" y="207" width="20" height="30"/><rect x="265" y="267" width="10" height="10"/><rect x="265" y="287" width="30" height="10"/><rect x="275" y="87" width="20" height="20"/><rect x="275" y="167" width="10" height="10"/><rect x="275" y="187" width="20" height="10"/><rect x="275" y="237" width="10" height="10"/><rect x="275" y="257" width="60" height="10"/><rect x="275" y="277" width="20" height="50"/><rect x="275" y="337" width="10" height="10"/><rect x="285" y="67" width="10" height="70"/><rect x="285" y="197" width="20" height="10"/><rect x="285" y="247" width="10" height="80"/><rect x="295" y="147" width="10" height="10"/><rect x="295" y="167" width="10" height="10"/><rect x="295" y="217" width="10" height="10"/><rect x="295" y="297" width="10" height="30"/><rect x="305" y="57" width="10" height="70"/><rect x="305" y="177" width="20" height="20"/><rect x="305" y="227" width="30" height="10"/><rect x="305" y="247" width="10" height="20"/><rect x="305" y="277" width="10" height="10"/><rect x="305" y="297" width="40" height="10"/><rect x="305" y="317" width="20" height="30"/><rect x="315" y="57" width="60" height="10"/><rect x="315" y="117" width="60" height="10"/><rect x="315" y="147" width="20" height="10"/><rect x="315" y="207" width="10" height="30"/><rect x="325" y="77" width="30" height="30"/><rect x="325" y="137" width="10" height="30"/><rect x="325" y="187" width="10" height="30"/><rect x="325" y="237" width="20" height="10"/><rect x="325" y="267" width="10" height="40"/><rect x="325" y="317" width="40" height="10"/><rect x="325" y="337" width="10" height="10"/><rect x="335" y="137" width="10" height="10"/><rect x="335" y="167" width="10" height="10"/><rect x="335" y="197" width="20" height="10"/><rect x="335" y="217" width="20" height="10"/><rect x="335" y="267" width="10" height="20"/><rect x="335" y="307" width="20" height="30"/><rect x="345" y="147" width="20" height="10"/><rect x="345" y="207" width="10" height="30"/><rect x="345" y="257" width="30" height="10"/><rect x="345" y="277" width="10" height="10"/><rect x="345" y="337" width="10" height="10"/><rect x="355" y="187" width="20" height="10"/><rect x="355" y="227" width="20" height="10"/><rect x="355" y="287" width="20" height="10"/><rect x="365" y="67" width="10" height="60"/><rect x="365" y="177" width="10" height="20"/><rect x="365" y="207" width="10" height="10"/><rect x="365" y="237" width="10" height="10"/><rect x="365" y="307" width="10" height="10"/><rect x="365" y="327" width="10" height="10"/></svg>