<?xml version="1.0" encoding="UTF-8" standalone="no"?>
<svg
   xmlns:dc="http://purl.org/dc/elements/1.1/"
   xmlns:cc="http://creativecommons.org/ns#"
   xmlns:rdf="http://www.w3.org/1999/02/22-rdf-syntax-ns#"
   xmlns:svg="http://www.w3.org/2000/svg"
   xmlns="http://www.w3.org/2000/svg"
   xmlns:sodipodi="http://sodipodi.sourceforge.net/DTD/sodipodi-0.dtd"
   xmlns:inkscape="http://www.inkscape.org/namespaces/inkscape"
   id="Windows10X_Logo"
   viewBox="0 0 69.840398 69.144576"
   version="1.1"
   sodipodi:docname="Windows_10X_Logo.svg"
   width="69.840401"
   height="69.144577"
   inkscape:version="1.0.2-2 (e86c870879, 2021-01-15)">
  <metadata
     id="metadata945">
    <rdf:RDF>
      <cc:Work
         rdf:about="">
        <dc:format>image/svg+xml</dc:format>
        <dc:type
           rdf:resource="http://purl.org/dc/dcmitype/StillImage" />
        <dc:title></dc:title>
      </cc:Work>
    </rdf:RDF>
  </metadata>
  <sodipodi:namedview
     pagecolor="#000000"
     bordercolor="#666666"
     borderopacity="1"
     objecttolerance="10"
     gridtolerance="10"
     guidetolerance="10"
     inkscape:pageopacity="0"
     inkscape:pageshadow="2"
     inkscape:window-width="2560"
     inkscape:window-height="1377"
     id="namedview943"
     showgrid="false"
     fit-margin-top="0"
     fit-margin-left="0"
     fit-margin-right="0"
     fit-margin-bottom="0"
     inkscape:zoom="11.313709"
     inkscape:cx="56.046808"
     inkscape:cy="37.138377"
     inkscape:window-x="1912"
     inkscape:window-y="-8"
     inkscape:window-maximized="1"
     inkscape:current-layer="Windows10X_Logo" />
  <defs
     id="defs912">
    <style
       id="style890">.cls-1{fill:url(#linear-gradient);}.cls-2{fill:url(#linear-gradient-2);}.cls-3{fill:url(#linear-gradient-3);}.cls-4{fill:url(#linear-gradient-4);}.cls-5{fill:#004bb3;}</style>
    <linearGradient
       id="linear-gradient"
       x1="1.52"
       y1="10.14"
       x2="29.84"
       y2="31.790001"
       gradientUnits="userSpaceOnUse">
      <stop
         offset="0"
         stop-color="#00b5fc"
         id="stop892" />
      <stop
         offset="1"
         stop-color="#007fea"
         id="stop894" />
    </linearGradient>
    <linearGradient
       id="linear-gradient-2"
       x1="33"
       y1="4.3800001"
       x2="70.279999"
       y2="32.889999"
       gradientUnits="userSpaceOnUse">
      <stop
         offset="0"
         stop-color="#00e7fd"
         id="stop897" />
      <stop
         offset="1"
         stop-color="#00c1f0"
         id="stop899" />
    </linearGradient>
    <linearGradient
       id="linear-gradient-3"
       x1="-0.12"
       y1="36.84"
       x2="31.110001"
       y2="60.720001"
       gradientUnits="userSpaceOnUse">
      <stop
         offset="0"
         stop-color="#016eed"
         id="stop902" />
      <stop
         offset="1"
         stop-color="#0025c8"
         id="stop904" />
    </linearGradient>
    <linearGradient
       id="linear-gradient-4"
       x1="32.279999"
       y1="36.529999"
       x2="70.730003"
       y2="65.93"
       gradientUnits="userSpaceOnUse">
      <stop
         offset="0"
         stop-color="#03d6fa"
         id="stop907" />
      <stop
         offset="1"
         stop-color="#0084e7"
         id="stop909" />
    </linearGradient>
  </defs>
  <g
     id="g951"
     transform="translate(1.7868546e-4,0.00227347)">
    <path
       class="cls-1"
       d="m 28.56,6.41 v 27 a 0.29,0.29 0 0 1 -0.3,0.3 H 0.3 A 0.29,0.29 0 0 1 0,33.41 V 13.48 a 4,4 0 0 1 3.46,-4 l 24.76,-3.4 a 0.29,0.29 0 0 1 0.34,0.33 z"
       transform="translate(0,-0.63)"
       id="path914"
       style="fill:#ffffff;fill-opacity:1" />
    <path
       class="cls-2"
       d="m 69.84,4.63 v 28.74 a 0.29,0.29 0 0 1 -0.3,0.3 H 32.3 A 0.29,0.29 0 0 1 32,33.37 V 5.79 a 0.3,0.3 0 0 1 0.26,-0.3 l 33,-4.82 a 4,4 0 0 1 4.58,3.96 z"
       transform="translate(0,-0.63)"
       id="path916"
       style="fill:#ffffff;fill-opacity:1" />
    <path
       class="cls-3"
       d="m 28.56,37 v 27 a 0.29,0.29 0 0 1 -0.34,0.29 L 3.46,60.84 A 4,4 0 0 1 0,56.84 V 36.69 h 28.26 a 0.29,0.29 0 0 1 0.3,0.31 z"
       transform="translate(0,-0.63)"
       id="path918"
       style="fill:#ffffff;fill-opacity:1" />
    <path
       class="cls-4"
       d="m 69.84,37 v 28.73 a 4,4 0 0 1 -4.58,4 l -33,-4.82 A 0.3,0.3 0 0 1 32,64.61 V 37 a 0.29,0.29 0 0 1 0.3,-0.3 h 37.24 a 0.29,0.29 0 0 1 0.3,0.3 z"
       transform="translate(0,-0.63)"
       id="path920"
       style="fill:#ffffff;fill-opacity:1" />
  </g>
</svg>
